<svg width="1081" height="1179" viewBox="0 0 1081 1179" fill="none" xmlns="http://www.w3.org/2000/svg">
<path d="M0.46875 147.656C0.46875 108.595 15.9858 71.1333 43.6064 43.5127C71.227 15.8921 108.689 0.375 147.75 0.375H626.807C665.855 0.409376 703.292 15.949 730.886 43.5775L1037.43 349.922C1051.1 363.606 1061.95 379.848 1069.34 397.723C1076.74 415.598 1080.54 434.755 1080.53 454.099V1031.34C1080.53 1070.41 1065.01 1107.87 1037.39 1135.49C1009.77 1163.11 972.311 1178.62 933.25 1178.62H147.75C108.689 1178.62 71.227 1163.11 43.6064 1135.49C15.9858 1107.87 0.46875 1070.41 0.46875 1031.34V147.656Z" fill="url(#paint0_linear_306_53)"/>
<defs>
<linearGradient id="paint0_linear_306_53" x1="0.468742" y1="48.4726" x2="1080.53" y2="1130.53" gradientUnits="userSpaceOnUse">
<stop stop-color="#6366F1"/>
<stop offset="0.752509" stop-color="#B9BBF7"/>
<stop offset="1" stop-color="#F9FAFB"/>
</linearGradient>
</defs>
</svg>
